<svg width="45" height="72" fill="none" xmlns="http://www.w3.org/2000/svg"><g clip-path="url(#clip0_84_1177)"><path d="M31.817 35.31a11.607 11.607 0 01-2.78 7.503c-6.408-6.53-4.367-13.002-8.222-13.062-3.855-.06-2.54 6.531-7.982 13.062-1.451-2.177-3.37-3.956-3.33-7.718.064-6.168 5.143-11.306 11.165-11.299 1.28 0 1.107 2.116 2.252 2.528 1.145.413 3.672-.845 4.635-.063a11.581 11.581 0 014.262 9.051v-.002z" fill="#E20613"/><path d="M18.702 0c.46.35.853.742.612 1.4-.235.645-.765.71-1.353.71-3.786-.01-7.572-.007-11.358-.004-2.482 0-4 1.537-4.003 4.05V65.71c0 2.466 1.534 4.02 3.963 4.021 9.407.002 18.815.002 28.222 0 2.403 0 3.946-1.518 3.948-3.96.013-11.855.005-23.708.003-35.563 0-.18-.03-.358-.046-.556-.682.504-1.346.952-1.952 1.469-.164.139-.208.49-.21.746-.015 2.665-.007 5.331-.011 7.996 0 .28.068.635-.07.821-.237.32-.608.727-.932.736-.326.01-.717-.378-.97-.685-.142-.177-.087-.538-.087-.818-.006-2.267-.004-4.536-.004-6.804v-.729c-.101-.047-.145-.086-.175-.077-.763.242-1.463.21-1.967-.517-.502-.724-.283-1.404.156-2.075.48-.73.929-1.482 1.442-2.308h-4.827c2.2 2.582 3.198 5.511 2.938 8.836-.196 2.52-1.147 4.746-2.78 6.656-3.256 3.81-8.552 5.022-13.104 3.01-4.617-2.043-7.344-6.837-6.781-12.022.48-4.417 3.811-9.383 10.33-10.242V14.87H6.918v44.027h27.54v-.803c0-4.044 0-8.09.002-12.134 0-.279-.008-.566.047-.837.114-.56.484-.836 1.041-.812.526.023.851.32.94.85.038.23.035.466.035.7v13.187c0 1.56-.44 2.007-1.959 2.007H6.754c-1.475 0-1.945-.476-1.945-1.962V9.22c0-1.488.467-1.96 1.947-1.96h31.853c.77-2.639-.996-5.14-3.624-5.152-3.808-.017-7.617-.01-11.427 0-.59 0-1.122-.073-1.35-.714-.231-.652.15-1.053.624-1.394h13.08c.171.054.34.118.515.161 2.403.61 4.139 2.68 4.337 5.191.033.418.063.843.033 1.26-.034.492.116.72.615.886 1.559.52 2.596 1.985 2.605 3.675.024 4.09.024 8.182 0 12.275-.01 1.675-1.006 3.118-2.547 3.637-.6.203-.674.514-.674 1.06.013 12.461.003 24.923.016 37.384.002 2.01-.6 3.716-2.153 5.007-1.011.841-2.184 1.287-3.488 1.29-9.659.009-19.317.022-28.976-.004-3.104-.008-5.564-2.547-5.654-5.709-.01-.303-.005-.607-.005-.912 0-19.38.042-38.762-.04-58.143C.483 3.444 1.998.759 5.484 0h13.219zM35.11 29.529c.208-.088.355-.133.484-.206 1.153-.654 2.054-1.563 2.651-2.766.37-.748.93-1.194 1.755-1.29 1.397-.159 1.96-.804 1.961-2.258.004-3.787.002-7.575 0-11.362 0-1.582-.667-2.277-2.206-2.279-5.253-.005-10.506-.005-15.761 0-1.523 0-2.196.675-2.2 2.215-.009 3.81-.007 7.622 0 11.432.004 1.566.69 2.243 2.246 2.243 3.51 0 7.02-.008 10.53.006 1.351.003 2.04 1.066 1.511 2.335-.265.635-.616 1.23-.973 1.928l.002.002zM28.38 40.56c.155-.227.25-.348.328-.48 2.102-3.553 1.576-8.262-1.212-11.31-.891-.974-1.835-1.667-3.221-1.41-.2.037-.412.005-.618.003-1.112-.005-2.037-.438-2.844-1.214-.203-.195-.552-.358-.817-.335-3.447.294-6.034 2.014-7.606 5.133-1.574 3.123-1.389 6.262.354 9.297.046.08.148.129.252.219.16-2.444 1.416-3.881 3.643-4.475-1.199-3.143-.85-5.21 1.133-6.749 1.713-1.332 4.09-1.325 5.823.017 1.982 1.535 2.322 3.62 1.1 6.74 2.281.567 3.483 2.074 3.688 4.564h-.002zm-7.718-2.502c-1.078 0-2.153-.02-3.23.006-1.398.034-2.306.976-2.336 2.393-.013.607.028 1.216-.013 1.82-.031.459.136.725.511.957 3.143 1.94 6.331 2.036 9.608.35.805-.413 1.25-.927 1.077-1.892-.064-.362-.007-.746-.01-1.119-.02-1.53-.944-2.488-2.446-2.51-1.054-.016-2.108-.005-3.161-.003v-.002zm-8.384-25.38h7.347l.357-3.266h-7.704v3.267zM23.41 33.17c.005-1.557-1.208-2.82-2.723-2.832-1.495-.01-2.766 1.267-2.779 2.796-.012 1.54 1.218 2.802 2.742 2.812 1.539.009 2.752-1.213 2.758-2.774l.002-.002zM6.914 9.404v3.268h3.229V9.404H6.914z" fill="#000"/><path d="M23.832 65.259c-.011 1.803-1.447 3.234-3.22 3.206-1.717-.026-3.14-1.512-3.122-3.257.019-1.791 1.466-3.221 3.24-3.2 1.734.02 3.113 1.465 3.102 3.25zm-4.27-.053c-.016.59.48 1.127 1.065 1.151a1.098 1.098 0 001.133-1.063c.031-.656-.447-1.176-1.081-1.18a1.127 1.127 0 00-1.118 1.092h.002zm1.124-61.584c1.1 0 2.199-.007 3.297.004.71.008 1.153.397 1.177.995.025.619-.442 1.093-1.166 1.098-2.221.017-4.442.017-6.664 0-.71-.005-1.125-.427-1.129-1.049-.003-.658.412-1.036 1.186-1.044 1.1-.011 2.198-.002 3.297-.002l.002-.002z" fill="#000"/><path d="M31.92 20.438h5.914c.252 0 .575-.071.739.058.312.246.72.602.737.931.018.33-.342.743-.632 1.009-.166.15-.524.103-.797.103-4.034.005-8.066.003-12.1.002-.206 0-.416.003-.616-.038-.575-.123-.875-.498-.835-1.098.039-.57.37-.886.923-.946.226-.025.458-.02.686-.02h5.981v-.001zm-.095-6.222c-2.11 0-4.218.027-6.325-.026-.366-.01-.85-.277-1.047-.58-.156-.243-.082-.839.12-1.067.233-.264.715-.398 1.094-.41 1.373-.047 2.749-.02 4.124-.02h7.975c.228 0 .461-.005.685.032.605.1.964.538.903 1.116-.062.6-.415.933-1 .944-1.145.02-2.291.011-3.437.013h-3.094l.002-.002zm-.046 4.162c-2.11 0-4.218.008-6.327-.003-.703-.004-1.127-.416-1.13-1.038-.005-.625.416-1.026 1.117-1.061.046-.002.092 0 .138 0 4.172 0 8.344-.002 12.516 0 .814 0 1.269.386 1.272 1.046.004.661-.452 1.053-1.26 1.055-2.108.005-4.217 0-6.326 0v.002z" fill="#E20613"/></g><defs><clipPath id="clip0_84_1177"><path fill="#fff" transform="translate(.497)" d="M0 0h43.538v71.838H0z"/></clipPath></defs></svg>