<svg width="101" height="31" fill="none" xmlns="http://www.w3.org/2000/svg"><path d="M93.42 30H7.031C3.173 30 0 26.832 0 22.931V7.069C0 3.169 3.151 0 7.031 0H93.42c3.859 0 7.031 3.168 7.031 7.069v15.884c0 3.879-3.151 7.069-7.031 7.069" fill="#0C0A05"/><path d="M47.76 22.78v3.362c0 .302-.063.41-.385.41-1.265 0-1.243 0-1.265-1.25 0-2.91.065-5.798-.064-8.707 0-.28.064-.366.321-.345.343.022.772-.086 1.008.065.279.172.043.646.172.991.17 0 .214-.172.3-.28 1.286-1.38 3.515-1.207 4.544.388.922 1.422.879 3.664-.107 5.043-1.072 1.509-3.216 1.703-4.545.323h.022zm3.645-2.866c0-.41-.064-.82-.214-1.207-.322-.905-1.03-1.38-1.865-1.293-.88.086-1.48.711-1.565 1.68a11.856 11.856 0 000 1.747c.064.797.557 1.4 1.243 1.551.815.194 1.544-.107 1.972-.84.3-.496.408-1.056.408-1.638" fill="#FDFEFF"/><path d="M39.379 22.78v3.362c0 .302-.064.431-.386.41-.407-.043-.922.172-1.179-.087-.236-.236-.064-.754-.064-1.142-.043-2.91.086-5.84-.086-8.75 0-.258.064-.323.322-.323 1.114-.043 1.114-.043 1.222 1.12.128-.129.214-.258.321-.366 1.222-1.357 3.537-1.207 4.502.367.964 1.551.943 3.19.085 4.784-.943 1.789-3.472 2.048-4.716.604l-.021.021zm.021-2.845c0 .431-.021.82.086 1.186.172.625.515 1.099 1.158 1.25.686.172 1.307.043 1.822-.517.857-.949.879-2.91.021-3.88-.879-.991-2.4-.711-2.894.517-.193.474-.193.992-.193 1.444zm-11.554 3.643c.214-.69.428-1.337.621-1.983.836-2.586 1.65-5.151 2.466-7.737.107-.324.235-.453.6-.431a4.11 4.11 0 001.029 0c.386-.043.578.086.686.474 1.007 3.19 2.036 6.38 3.086 9.655H34.77c-.236 0-.215-.172-.28-.323-.235-.776-.492-1.53-.707-2.306-.064-.28-.192-.345-.471-.345h-2.594c-.279 0-.386.108-.45.345-.214.754-.472 1.508-.686 2.263-.086.28-.214.366-.493.366-.407-.022-.815 0-1.286 0l.043.021zm4.158-8.707c-.45 1.487-.836 2.844-1.243 4.18-.043.152-.086.28.15.28h2.23c.15 0 .235 0 .17-.215-.428-1.379-.835-2.737-1.307-4.245zm24.546 6.896c.9.474 1.822.733 2.808.582.772-.108 1.286-.538 1.393-1.163.129-.69-.15-1.294-.836-1.725-.386-.237-.836-.388-1.243-.56-.472-.194-.922-.431-1.308-.754-1.436-1.121-1.414-3.19.108-4.224 1.371-.927 2.85-.82 4.351-.28.107.042.236.086.193.236-.107.345-.193.69-.343 1.035-.086.215-.236.021-.364 0-.73-.237-1.458-.41-2.23-.237-.557.13-.986.43-1.093 1.034-.107.604.172 1.035.643 1.38.472.323 1.008.495 1.522.754.472.216.922.453 1.33.797 1.414 1.229 1.242 3.6-.408 4.505-1.5.819-3.066.71-4.609.086-.236-.108-.279-.259-.214-.474.107-.323.193-.625.3-1.013m19.249-1.962c-.022 3.6-3.323 4.699-5.424 3.47-1.178-.69-1.65-1.81-1.714-3.146-.086-2.026 1.114-3.664 2.915-3.987 2.1-.367 3.901.97 4.159 3.125.021.194.043.41.043.538h.02zm-1.694.151c0-.56-.085-1.099-.343-1.573-.321-.625-.814-1.034-1.522-1.034-.707 0-1.243.344-1.564.97-.558 1.098-.6 2.24 0 3.318.686 1.272 2.229 1.272 2.98.043.32-.517.428-1.12.428-1.702" fill="#FEFFFF"/><path d="M85.788 20.302h-2.08c-.3 0-.342.108-.3.366.108.97.815 1.681 1.801 1.767.686.065 1.394.044 2.058-.194.236-.086.365-.107.429.238.15.862.172.862-.686 1.056-.815.194-1.63.258-2.444.107-1.629-.301-2.636-1.551-2.743-3.383a4.657 4.657 0 01.407-2.22c.75-1.617 2.508-2.35 4.158-1.724 1.222.474 1.694 1.508 1.822 2.715.15 1.272.13 1.272-1.114 1.272h-1.33.022zm-.793-1.142h1.415c.15 0 .279 0 .279-.194.064-.776-.515-1.552-1.265-1.703-.965-.194-1.994.668-2.037 1.681 0 .216.086.216.258.216h1.371m-19.035-4.742v1.53c0 .238.065.302.3.302h1.222c.215 0 .258.065.279.28.064.949.064.949-.879.949-.943 0-.922 0-.922.948v2.715c0 .992.365 1.315 1.35 1.229.258-.022.344 0 .344.28-.022.97.3.948-.9 1.056-1.48.13-2.187-.453-2.337-1.94-.107-1.25-.043-2.5-.043-3.75 0-.41-.064-.581-.514-.517-.172 0-.472.151-.536-.108a2.407 2.407 0 01.021-1.034c.043-.172.386-.086.579-.065.343.022.45-.064.45-.43-.021-.884 0-.884.836-1.165.214-.064.45-.129.75-.237" fill="#FDFEFF"/><path d="M78.629 17.457c.45-.754.986-1.293 1.907-1.358.343 0 .58.043.515.474v.194c0 .28.086.604-.022.798-.128.237-.493.043-.75.086-.836.13-1.393.862-1.415 1.918 0 1.142-.043 2.284 0 3.427 0 .495-.128.603-.6.582-1.072-.043-1.072 0-1.072-1.1 0-1.94 0-3.857-.021-5.797 0-.302.021-.453.386-.431.986 0 .986 0 1.05.991v.216" fill="#FBFBFC"/><path d="M21.887 9.785c-2.851 1.81-2.551 5.926.493 7.284-.064.194-.107.366-.193.56-.472 1.229-1.179 2.328-2.036 3.34-.365.41-.772.755-1.308.928-.6.172-1.158.086-1.715-.151a8.495 8.495 0 00-1.243-.431c-.73-.173-1.458-.022-2.144.258-.45.194-.9.388-1.415.431a1.92 1.92 0 01-1.179-.323c-.514-.345-.9-.797-1.264-1.293a12.252 12.252 0 01-1.415-2.328c-.515-1.163-.88-2.392-.986-3.663-.086-.906-.065-1.81.171-2.694.407-1.574 1.308-2.759 2.851-3.406.986-.409 1.95-.409 2.937 0 .386.151.793.302 1.2.453.3.108.6.065.88-.022.47-.172.921-.366 1.393-.517 1.5-.495 2.894-.237 4.158.711.322.238.58.54.815.884m-7.01-2.069c-.236-2.069 1.629-4.138 3.665-4.246.3 1.897-1.5 4.419-3.665 4.246zm14.127.798v-.54a2.95 2.95 0 001.286.302c.75 0 1.222-.237 1.222-.69 0-.409-.386-.603-1.008-.603h-.643V6.53h.643c.58 0 .858-.215.858-.539 0-.388-.343-.581-1.029-.581a3.12 3.12 0 00-1.222.258v-.517c.364-.151.793-.237 1.33-.237.428 0 .77.086 1.05.28.278.194.428.41.428.711-.021.539-.3.711-.6.84.493.152.75.475.75.927 0 .69-.664 1.143-1.715 1.143-.535 0-.986-.087-1.35-.259v-.021zm4.266-.065a1.131 1.131 0 01-.408-.906c0-.387.15-.668.429-.905.3-.215.643-.323 1.093-.323.472 0 .922.13 1.33.366v-.366c0-.625-.408-.927-1.222-.927-.43 0-.836.13-1.201.367v-.54a2.536 2.536 0 011.33-.344c.985 0 1.65.474 1.65 1.38v1.53c0 .28.128.452.343.452.085 0 .15 0 .214-.043v.431s-.193.086-.364.086c-.365 0-.643-.194-.686-.582-.365.431-.88.647-1.48.647-.385 0-.728-.108-1.007-.323h-.021zm2.443-.798v-.517a2.185 2.185 0 00-1.2-.366c-.665 0-1.093.28-1.093.754 0 .496.428.754 1.007.754a1.69 1.69 0 001.286-.625zm1.994 1.013V4.978h2.765v.474h-2.23v3.233h-.556.021zm4.245 1.552h-.557V4.978h.557v.582c.343-.452.815-.69 1.436-.69.536 0 .986.195 1.33.561.342.366.514.84.514 1.38 0 .538-.172 1.012-.515 1.379-.343.366-.793.56-1.329.56-.6 0-1.093-.237-1.436-.69v2.177zm0-2.78c.214.495.75.84 1.308.84.407 0 .75-.129 1.007-.41.279-.28.407-.624.407-1.034 0-.41-.128-.754-.407-1.034a1.37 1.37 0 00-1.008-.41c-.557 0-1.071.345-1.307.84v1.23-.022zm3.837 2.693v-.517c.15.087.322.13.493.13.45 0 .75-.367 1.093-1.207l-1.65-3.578h.6l1.307 2.91 1.265-2.91h.6l-1.822 4.117c-.321.776-.771 1.142-1.329 1.142-.278 0-.471-.043-.578-.108l.02.022zm4.331-1.615v-.54c.406.195.835.302 1.285.302.75 0 1.222-.237 1.222-.69 0-.409-.386-.603-1.007-.603h-.643V6.53h.643c.579 0 .857-.215.857-.539 0-.388-.343-.581-1.029-.581-.407 0-.814.086-1.222.258v-.517c.365-.151.794-.237 1.33-.237.428 0 .771.086 1.071.28.3.194.429.41.429.711-.021.539-.3.711-.6.84.493.152.75.475.75.927 0 .69-.665 1.143-1.715 1.143-.536 0-.986-.087-1.35-.259l-.022-.021zm4.179.15V4.978h.557v2.888l2.358-2.888h.515v3.707h-.558V5.797l-2.358 2.888H54.3zm5.595 0V5.452h-1.33v-.474h3.216v.474h-1.33v3.233h-.556zm2.936-.452c-.385-.367-.578-.82-.578-1.401 0-.582.171-1.013.514-1.401.343-.366.794-.56 1.35-.56 1.244 0 1.716 1.099 1.716 1.918v.15h-3.023c.065.798.686 1.315 1.565 1.315.429 0 .836-.108 1.18-.345v.496c-.3.237-.73.345-1.287.345-.557 0-1.05-.194-1.458-.539l.022.022zm2.466-1.724c0-.28-.129-.54-.322-.776-.193-.237-.471-.345-.879-.345-.407 0-.664.108-.9.345a1.205 1.205 0 00-.364.797h2.465v-.02zm3.601 2.176V4.978h1.951c.708 0 1.115.388 1.115.949 0 .387-.15.668-.45.819.471.129.707.452.707.948 0 .603-.45.991-1.222.991h-2.1zm.558-2.133h1.243c.45 0 .729-.194.729-.54 0-.344-.257-.538-.729-.538h-1.243v1.1-.022zm0 1.659h1.415c.493 0 .793-.215.793-.582 0-.366-.3-.603-.793-.603h-1.415V8.21z" fill="#fff"/></svg>