<svg width="72" height="72" fill="none" xmlns="http://www.w3.org/2000/svg"><g clip-path="url(#clip0_84_1202)"><path d="M36.285 3.151H25.792c-.765 0-1.434.515-1.63 1.255l-1.167 4.451a.553.553 0 00.534.693h11.012l3.793-3.535-.422-1.609a1.681 1.681 0 00-1.629-1.255h.002z" fill="#E20613"/><path d="M.023 57.31V35.87c.257-.121.207-.39.278-.595.686-1.957 1.984-3.322 3.994-3.872.714-.197 1.144-.504 1.331-1.193.036-.133.105-.259.161-.386.327-.739.077-1.111-.748-1.116-2.175-.015-3.782-1.51-3.81-3.543-.028-2.082 1.553-3.61 3.77-3.63 1.285-.014 2.571-.025 3.856.009.467.01.686-.13.877-.57 1.131-2.602 2.3-5.19 3.462-7.778.804-1.792 2.163-2.942 4.065-3.446.59-.155 1.194-.198 1.805-.198 4.628.004 9.256.004 13.883-.004.259 0 .563.154.628-.373.35-2.752 2.26-4.393 5.05-4.4 1.776-.004 3.553-.01 5.329.006.382.003.622-.062.806-.461.41-.89 1.142-1.625 2.078-1.719 1.267-.127 2.16-.661 2.95-1.592.468-.548 1.265-.623 1.86-1.009h1.825c1.208.37 2.346.865 3.074 1.966.226.343.476.427.858.429 1.453.013 2.56.66 3.239 1.946.181.344.373.445.744.441a269 269 0 015.61-.003c2.76.028 4.849 2.091 4.85 4.835.01 17.51.01 35.02 0 52.53 0 2.708-2.08 4.809-4.796 4.815-9.56.02-19.123.016-28.684 0-2.531-.004-4.502-1.79-4.793-4.302-.047-.406-.17-.479-.54-.477-3.646.013-7.293.017-10.94-.004-.46-.002-.537.152-.525.558.026.957.022 1.914.005 2.87-.058 3.225-2.124 5.71-5.267 6.064-2.06.232-4.168.217-6.232.004-2.762-.287-4.748-2.307-5.183-5.01-.212-1.321-.07-2.656-.086-3.984-.006-.42-.064-.63-.54-.779-2.031-.64-3.374-2-4.015-4.045-.056-.181.004-.436-.236-.545h.007zm35.919-21.432v26.053c0 1.612.96 2.64 2.522 2.642 9.491.01 18.98.01 28.472 0 1.534 0 2.53-1.022 2.53-2.57.003-17.414.003-34.83 0-52.245 0-1.586-.992-2.58-2.579-2.592-1.822-.011-3.647.008-5.47-.011-.367-.004-.573.084-.753.436-.667 1.296-1.766 1.953-3.225 1.959-3.156.01-6.311.01-9.467 0-1.462-.004-2.552-.672-3.229-1.957-.184-.348-.382-.442-.754-.438-1.728.019-3.459.007-5.19.01-1.968 0-2.86.893-2.86 2.87v25.843h.003zM7.848 31.096c8.483 0 16.851-.006 25.22.013.511 0 .487-.244.487-.594-.006-5.977-.011-11.952.01-17.93 0-.53-.136-.653-.657-.651-4.63.022-9.257.013-13.887.011-1.772 0-3.01.779-3.73 2.423-1.475 3.367-2.982 6.72-4.479 10.08L7.85 31.096h-.002zm11.608 2.389c-4.466 0-8.93-.01-13.397.004-2.081.005-3.634 1.55-3.641 3.629-.017 4.18.004 8.359-.017 12.538-.002.485.16.562.593.562 5.587-.013 11.175-.019 16.762.007.567.002.632-.189.625-.67-.028-1.657-.013-3.316-.01-4.973.004-2.446 1.482-3.93 3.917-3.935 2.9-.003 5.798-.01 8.697.01.46.004.581-.12.575-.577-.026-1.985-.03-3.97 0-5.953.008-.51-.099-.659-.639-.655-4.489.024-8.978.015-13.466.015l.001-.002zm-1.48 19.122h-4.137c-3.576 0-7.15.015-10.726-.015-.6-.005-.753.163-.716.736.053.79.013 1.586.013 2.38 0 2.665 1.435 4.09 4.116 4.09 8.389 0 16.776.002 25.165-.006.6 0 1.387.264 1.75-.116.356-.376.05-1.157.114-1.754.048-.463-.152-.536-.557-.525-.958.027-1.916.023-2.874.004-.855-.017-1.349-.468-1.356-1.189-.008-.727.48-1.176 1.331-1.2.583-.017 1.168.015 1.751-.01.553-.024 1.288.253 1.61-.123.27-.317.035-1.03.095-1.56.065-.592-.14-.727-.724-.725-4.954.025-9.908.015-14.862.015l.006-.002zm-4.76 9.582c-1.798 0-3.598.015-5.396-.01-.461-.005-.662.074-.638.596.045.955.004 1.912.015 2.87.028 2.16 1.56 3.692 3.718 3.709 1.473.01 2.944.005 4.416 0 2.318-.008 3.812-1.474 3.848-3.789.015-.932-.019-1.866.013-2.799.015-.45-.103-.597-.578-.59-1.798.03-3.598.011-5.396.011l-.002.002zM52.65 7.163c1.61-.002 3.221.009 4.832-.008.688-.007 1.165-.483 1.195-1.118.032-.663-.437-1.196-1.142-1.253a9.757 9.757 0 00-1.26-.005c-.67.033-1.11-.262-1.364-.87-.412-.984-1.171-1.514-2.223-1.507-1.052.008-1.798.551-2.207 1.536-.24.577-.67.869-1.31.84-.35-.016-.7-.007-1.05 0-.867.016-1.4.491-1.387 1.227.014.725.505 1.154 1.365 1.157 1.517.008 3.034.002 4.551.002v-.002zM28.132 50.209c1.215 0 2.43.015 3.645-.006.574-.01 1.36.264 1.667-.116.29-.358.07-1.112.116-1.69.036-.447-.09-.596-.568-.593-3.225.023-6.45.019-9.675.004-.409-.002-.604.075-.56.532.04.44.037.887 0 1.33-.036.428.1.557.538.55 1.612-.026 3.225-.011 4.837-.01v-.001zm-.05-4.785c1.215 0 2.43.013 3.643-.005.596-.01 1.39.266 1.73-.13.293-.339.057-1.112.105-1.689.04-.466-.125-.578-.58-.576-2.804.02-5.605.009-8.408.01-1.476 0-1.797.35-1.823 1.81-.01.522.18.599.637.591 1.564-.026 3.13-.009 4.694-.009l.002-.002zM6.372 23.926v.007c-.534 0-1.07-.022-1.605.006-.663.033-1.095.471-1.13 1.093-.036.614.348 1.184.978 1.236.878.073 1.827.223 2.627-.032.557-.176.595-1.134.913-1.72.034-.06.057-.128.089-.19.151-.294.076-.415-.267-.406-.534.017-1.07.004-1.605.004v.002z" fill="#020202"/><path d="M46.725 16.737c-2.242 0-4.483 0-6.726-.002-.255 0-.52.004-.765-.056-.568-.139-.872-.54-.889-1.109-.016-.539.255-.945.771-1.129.234-.082.505-.1.758-.1 4.554-.005 9.109-.005 13.661-.001.208 0 .422.01.625.056.602.139.975.627.918 1.221-.056.605-.386.99-.999 1.086-.229.036-.465.032-.7.032-2.218.002-4.436 0-6.656 0l.002.002zm-.009 35.87h-6.657c-.257 0-.517.006-.767-.043-.607-.12-.933-.53-.947-1.129-.013-.567.282-.983.846-1.142.242-.068.506-.079.761-.079 4.508-.003 9.016-.003 13.523 0 .233 0 .47.008.694.06.598.137.97.633.91 1.227-.06.605-.394.985-1.008 1.078-.228.034-.465.03-.699.03-2.218.002-4.436 0-6.656 0v-.002zm.005-26.29c2.29 0 4.58-.002 6.867 0 .956 0 1.494.429 1.5 1.174.004.755-.54 1.213-1.476 1.215-4.601.004-9.203.004-13.804 0-.915 0-1.485-.489-1.47-1.228.013-.723.544-1.158 1.447-1.16 2.313-.005 4.624 0 6.938 0l-.002-.001zm-.03 14.328c-2.29 0-4.579.002-6.866 0-.936 0-1.495-.453-1.489-1.192.004-.734.572-1.191 1.5-1.193 4.602-.002 9.203-.004 13.804 0 1.043 0 1.637.646 1.395 1.511-.185.667-.682.88-1.337.878-2.336-.01-4.67-.004-7.007-.004z" fill="#020202"/><path d="M59.914 21.525c-.32-.028-.613-.103-.84-.328-.414-.41-.844-.809-1.234-1.241-.446-.498-.424-1.197.015-1.642.456-.465 1.15-.532 1.63-.04.414.425.652.352 1.067.008 1.45-1.21 2.945-2.367 4.42-3.553.483-.389.995-.516 1.544-.18.692.424.778 1.362.113 1.909-1.986 1.627-4.004 3.211-6.01 4.812-.21.169-.461.216-.705.255zm7.168 29.863c-.037.47-.241.792-.566 1.053-1.916 1.528-3.825 3.065-5.749 4.582-.688.543-1.228.489-1.858-.12a27.44 27.44 0 01-.99-.99c-.515-.551-.527-1.274-.045-1.748.482-.471 1.157-.496 1.686.038.347.348.545.314.904.018 1.513-1.245 3.058-2.45 4.588-3.677.423-.34.883-.427 1.368-.187.437.213.625.606.664 1.031h-.002zm-8.285-9.512c.287-.023.607.14.827.421.286.367.493.247.785.008 1.502-1.223 3.02-2.425 4.532-3.639.424-.339.864-.548 1.414-.294.857.397.979 1.403.202 2.058-.89.753-1.818 1.463-2.732 2.191-1.003.801-1.998 1.61-3.01 2.4-.76.594-1.272.553-1.964-.13-.366-.36-.739-.716-1.074-1.105-.317-.367-.343-.81-.14-1.245.207-.442.57-.661 1.158-.67l.002.005zm1.083-8.395a1.202 1.202 0 01-.819-.344c-.401-.392-.81-.778-1.189-1.19-.483-.524-.47-1.232 0-1.694.45-.442 1.172-.502 1.635-.006.428.457.672.296 1.056-.02 1.442-1.186 2.91-2.341 4.37-3.504.692-.55 1.401-.537 1.857.023.472.582.367 1.256-.332 1.82-1.89 1.524-3.791 3.033-5.689 4.546-.259.208-.542.367-.889.367v.002z" fill="#E20613"/><path d="M43.15 19.136c1.12 0 2.24-.012 3.361.003.876.012 1.362.43 1.382 1.146.023.751-.484 1.238-1.367 1.244a545.5 545.5 0 01-6.793 0c-.868-.006-1.414-.51-1.397-1.227.017-.698.535-1.15 1.382-1.16 1.144-.016 2.288-.005 3.431-.005v-.001zm.014 35.87c1.122 0 2.241-.011 3.362.004.878.011 1.354.432 1.367 1.16.013.754-.487 1.224-1.382 1.23-2.265.012-4.528.012-6.793 0-.863-.006-1.408-.525-1.382-1.242.026-.697.544-1.137 1.397-1.146 1.144-.013 2.288-.004 3.431-.004v-.002zm-.011-9.582c-1.144 0-2.29.008-3.433-.002-.846-.007-1.365-.449-1.382-1.153-.019-.721.534-1.227 1.393-1.23 2.265-.01 4.53-.01 6.797 0 .876.003 1.39.49 1.367 1.241-.02.727-.504 1.137-1.378 1.144-1.121.01-2.243.002-3.364.002v-.002zm-.015-14.328c1.121 0 2.243-.006 3.364 0 .892.005 1.402.453 1.395 1.2-.008.719-.516 1.18-1.354 1.181-2.29.01-4.579.01-6.866 0-.806-.003-1.348-.514-1.339-1.211.01-.7.54-1.165 1.369-1.17 1.144-.01 2.29-.002 3.433-.002l-.002.002zM31.172 15.503c-.032.46-.23.784-.553 1.05-4.319 3.526-8.635 7.056-12.955 10.58-.634.517-1.358.48-1.806-.056-.47-.564-.36-1.256.326-1.818 3.735-3.06 7.478-6.112 11.217-9.168.615-.502 1.219-1.015 1.847-1.498.403-.311.864-.347 1.312-.088.39.226.587.584.612 1v-.002zM10.89 37.078a4.775 4.775 0 014.698 4.897c-.062 2.603-2.284 4.726-4.88 4.665a4.78 4.78 0 01-4.68-4.916 4.747 4.747 0 014.861-4.646zm-3.023 4.766c0 1.635 1.33 2.97 2.947 2.955 1.613-.015 2.957-1.384 2.935-2.99a2.935 2.935 0 00-2.927-2.888c-1.661-.013-2.955 1.266-2.955 2.923z" fill="#020202"/></g><defs><clipPath id="clip0_84_1202"><path fill="#fff" transform="translate(.023)" d="M0 0h71.838v71.838H0z"/></clipPath></defs></svg>