<svg width="136" height="35" fill="none" xmlns="http://www.w3.org/2000/svg"><path d="M25.053 35H9.947C4.454 35 0 30.546 0 25.053V9.947C0 4.454 4.454 0 9.947 0h15.106C30.546 0 35 4.454 35 9.947v15.106C35 30.546 30.546 35 25.053 35z" fill="#E20613"/><path d="M7.577 9.25c-.23-.862.074-1.406.916-1.632l5.914-1.584c1.088-.292 1.948-.473 2.578-.543.63-.07 1.21-.065 1.737.014a6.091 6.091 0 013.263 1.519c.94.838 1.608 1.996 2.004 3.474a7.66 7.66 0 01.265 1.976c0 .66-.082 1.293-.25 1.9a6.196 6.196 0 01-.764 1.706 5.14 5.14 0 01-1.285 1.368l.017.061.259.228c.089.086.197.184.326.292.128.11.27.253.428.43l5.37 5.626c.388.38.534.738.436 1.072-.097.334-.403.57-.916.707l-1.663.446c-.678.182-1.261.02-1.749-.489l-5.798-6.237-3.82 1.023 1.841 6.869c.231.862-.074 1.407-.916 1.632l-1.417.38c-.842.225-1.378-.093-1.61-.956L7.578 9.25zm9.918 6.95c1.067-.286 1.826-.82 2.277-1.605.45-.784.529-1.722.236-2.816-.188-.7-.491-1.277-.91-1.729-.418-.452-.958-.722-1.62-.81-.3-.052-.638-.06-1.014-.026-.375.034-.861.131-1.456.29l-2.927.784 1.84 6.87 3.574-.958z" fill="#fff"/><path d="M44.82 24.16c-.853 0-1.28-.44-1.28-1.32V11.2c0-.867.433-1.3 1.3-1.3h4.82c1.547 0 2.74.373 3.58 1.12.84.733 1.26 1.767 1.26 3.1 0 1.053-.273 1.927-.82 2.62-.547.68-1.333 1.14-2.36 1.38.68.213 1.24.727 1.68 1.54l1.5 2.78c.227.427.267.82.12 1.18-.133.36-.473.54-1.02.54-.36 0-.653-.073-.88-.22-.227-.16-.427-.4-.6-.72L50.1 19.5c-.24-.453-.527-.753-.86-.9-.32-.16-.733-.24-1.24-.24h-1.9v4.48c0 .88-.427 1.32-1.28 1.32zm1.28-7.7h3.12c1.867 0 2.8-.76 2.8-2.28 0-1.507-.933-2.26-2.8-2.26H46.1v4.54zM58.61 24c-.906 0-1.36-.453-1.36-1.36V11.26c0-.907.454-1.36 1.36-1.36h7.14c.694 0 1.04.333 1.04 1 0 .693-.346 1.04-1.04 1.04h-6.04v3.88h5.6c.694 0 1.04.34 1.04 1.02 0 .68-.346 1.02-1.04 1.02h-5.6v4.1h6.04c.694 0 1.04.34 1.04 1.02 0 .68-.346 1.02-1.04 1.02h-7.14zm11.934 0c-.906 0-1.36-.453-1.36-1.36V11.26c0-.907.454-1.36 1.36-1.36h3.88c2.36 0 4.18.607 5.46 1.82 1.294 1.213 1.94 2.953 1.94 5.22 0 2.253-.646 3.993-1.94 5.22-1.28 1.227-3.1 1.84-5.46 1.84h-3.88zm1.2-2.12h2.52c3.254 0 4.88-1.647 4.88-4.94 0-3.28-1.626-4.92-4.88-4.92h-2.52v9.86zM88.9 24.14c-.547 0-.82-.287-.82-.86V11.32h-4.5c-.507 0-.76-.24-.76-.72 0-.467.253-.7.76-.7h10.66c.507 0 .76.233.76.7 0 .48-.253.72-.76.72h-4.5v11.96c0 .573-.28.86-.84.86zm9.168.04c-.667 0-1.267-.127-1.8-.38a3.262 3.262 0 01-1.24-1.08 2.652 2.652 0 01-.46-1.52c0-.707.18-1.267.54-1.68.373-.413.98-.707 1.82-.88.853-.187 2.013-.28 3.48-.28h.64v-.62c0-.827-.174-1.42-.52-1.78-.334-.373-.874-.56-1.62-.56-.467 0-.94.06-1.42.18a6.78 6.78 0 00-1.46.58c-.227.12-.42.147-.58.08a.706.706 0 01-.32-.36.866.866 0 010-.52.726.726 0 01.4-.42 7.513 7.513 0 011.72-.64 7.52 7.52 0 011.66-.2c1.253 0 2.18.307 2.78.92.613.613.92 1.567.92 2.86v5.42c0 .56-.247.84-.74.84-.52 0-.78-.28-.78-.84v-.98a3.004 3.004 0 01-1.18 1.36c-.52.333-1.134.5-1.84.5zm.26-1.22c.8 0 1.453-.273 1.96-.82.506-.56.76-1.267.76-2.12v-.6h-.62c-1.08 0-1.934.053-2.56.16-.614.093-1.047.267-1.3.52-.24.24-.36.573-.36 1 0 .547.186.993.56 1.34.386.347.906.52 1.56.52zm8.261 1.18c-.547 0-.82-.28-.82-.84v-8.28c0-.56.273-.84.82-.84.533 0 .8.28.8.84v3.32h1.82l2.96-3.8c.173-.213.353-.327.54-.34.2-.027.373.013.52.12.16.107.26.26.3.46.04.187-.02.387-.18.6l-2.56 3.28c.347.12.66.333.94.64.28.307.593.753.94 1.34l1.44 2.38c.12.227.147.433.08.62a.74.74 0 01-.38.4.74.74 0 01-.56.06c-.2-.04-.367-.173-.5-.4l-1.58-2.64c-.333-.547-.653-.92-.96-1.12-.307-.2-.74-.3-1.3-.3h-1.52v3.66c0 .56-.267.84-.8.84zm13.847.04c-.973 0-1.813-.207-2.52-.62a4.327 4.327 0 01-1.64-1.78c-.373-.773-.56-1.673-.56-2.7 0-1.547.42-2.76 1.26-3.64.84-.893 1.994-1.34 3.46-1.34.48 0 .98.08 1.5.24.52.147.994.393 1.42.74.227.16.32.36.28.6a.682.682 0 01-.34.54c-.186.12-.406.093-.66-.08a3.493 3.493 0 00-2.1-.72c-1.013 0-1.793.32-2.34.96-.546.627-.82 1.533-.82 2.72 0 1.16.274 2.08.82 2.76.547.667 1.327 1 2.34 1a3.493 3.493 0 002.1-.72c.254-.173.474-.193.66-.06.187.12.287.3.3.54.027.24-.066.433-.28.58a4.21 4.21 0 01-1.4.76c-.506.147-1 .22-1.48.22zm6.053-.04c-.493 0-.74-.293-.74-.88v-8.32c0-.533.247-.8.74-.8.494 0 .74.267.74.8v6.86l5.32-7.14c.107-.147.227-.267.36-.36.147-.107.34-.16.58-.16.494 0 .74.287.74.86v8.34c0 .533-.246.8-.74.8-.493 0-.74-.267-.74-.8v-6.86l-5.34 7.14a1.525 1.525 0 01-.36.36c-.133.107-.32.16-.56.16z" fill="#000"/></svg>