<svg width="155" height="155" fill="none" xmlns="http://www.w3.org/2000/svg"><path d="M154.497.005H.411v154.086h154.086V.005z" fill="#fff"/><path d="M11.82 5.718H6.109v5.713h5.713V5.718z" fill="#000"/><path d="M17.534 5.718H11.82v5.713h5.713V5.718zm5.713 0h-5.713v5.713h5.713V5.718z" fill="#000"/><path d="M28.943 5.718h-5.712v5.713h5.712V5.718z" fill="#000"/><path d="M34.656 5.718h-5.713v5.713h5.713V5.718zm5.714 0h-5.714v5.713h5.713V5.718z" fill="#000"/><path d="M46.066 5.718h-5.713v5.713h5.713V5.718zm11.409 0h-5.712v5.713h5.712V5.718zm11.426 0h-5.713v5.713h5.713V5.718z" fill="#000"/><path d="M74.598 5.718h-5.713v5.713h5.713V5.718zm5.712 0h-5.712v5.713h5.713V5.718zm11.41 0h-5.712v5.713h5.712V5.718zm11.426 0h-5.713v5.713h5.713V5.718zm11.41 0h-5.713v5.713h5.713V5.718z" fill="#000"/><path d="M120.253 5.718h-5.713v5.713h5.713V5.718zm5.712 0h-5.712v5.713h5.712V5.718zm5.713 0h-5.713v5.713h5.713V5.718z" fill="#000"/><path d="M137.375 5.718h-5.713v5.713h5.713V5.718zm5.713 0h-5.713v5.713h5.713V5.718zm5.713 0h-5.713v5.713h5.713V5.718zM11.82 11.415H6.109v5.713h5.713v-5.713zm34.246 0h-5.713v5.713h5.713v-5.713zm11.409 0h-5.712v5.713h5.712v-5.713z" fill="#000"/><path d="M63.188 11.415h-5.713v5.713h5.713v-5.713z" fill="#000"/><path d="M68.901 11.415h-5.713v5.713h5.713v-5.713zm17.123 0H80.31v5.713h5.713v-5.713z" fill="#000"/><path d="M91.72 11.415h-5.712v5.713h5.712v-5.713zm11.426 0h-5.713v5.713h5.713v-5.713zm11.41 0h-5.713v5.713h5.713v-5.713zm34.245 0h-5.713v5.713h5.713v-5.713zM11.82 17.128H6.109v5.712h5.713v-5.712zm11.427 0h-5.713v5.712h5.713v-5.712z" fill="#000"/><path d="M28.943 17.128h-5.712v5.712h5.712v-5.712z" fill="#000"/><path d="M34.656 17.128h-5.713v5.712h5.713v-5.712zm11.41 0h-5.713v5.712h5.713v-5.712zm22.835 0h-5.713v5.712h5.713v-5.712z" fill="#000"/><path d="M74.598 17.128h-5.713v5.712h5.713v-5.712zm5.712 0h-5.712v5.712h5.713v-5.712z" fill="#000"/><path d="M86.024 17.128H80.31v5.712h5.713v-5.712zm28.532 0h-5.713v5.712h5.713v-5.712zm11.409 0h-5.712v5.712h5.712v-5.712zm5.713 0h-5.713v5.712h5.713v-5.712z" fill="#000"/><path d="M137.375 17.128h-5.713v5.712h5.713v-5.712zm11.426 0h-5.713v5.712h5.713v-5.712zM11.82 22.825H6.109v5.712h5.713v-5.712zm11.427 0h-5.713v5.712h5.713v-5.712z" fill="#000"/><path d="M28.943 22.825h-5.712v5.712h5.712v-5.712z" fill="#000"/><path d="M34.656 22.825h-5.713v5.712h5.713v-5.712zm11.41 0h-5.713v5.712h5.713v-5.712zm22.835 0h-5.713v5.712h5.713v-5.712z" fill="#000"/><path d="M74.598 22.825h-5.713v5.712h5.713v-5.712zm11.426 0H80.31v5.712h5.713v-5.712z" fill="#000"/><path d="M91.72 22.825h-5.712v5.712h5.712v-5.712zm5.713 0H91.72v5.712h5.713v-5.712zm17.123 0h-5.713v5.712h5.713v-5.712zm11.409 0h-5.712v5.712h5.712v-5.712zm5.713 0h-5.713v5.712h5.713v-5.712z" fill="#000"/><path d="M137.375 22.825h-5.713v5.712h5.713v-5.712zm11.426 0h-5.713v5.712h5.713v-5.712zM11.82 28.537H6.109v5.713h5.713v-5.713zm11.427 0h-5.713v5.713h5.713v-5.713z" fill="#000"/><path d="M28.943 28.537h-5.712v5.713h5.712v-5.713z" fill="#000"/><path d="M34.656 28.537h-5.713v5.713h5.713v-5.713zm11.41 0h-5.713v5.713h5.713v-5.713zm11.409 0h-5.712v5.713h5.712v-5.713z" fill="#000"/><path d="M63.188 28.537h-5.713v5.713h5.713v-5.713z" fill="#000"/><path d="M68.901 28.537h-5.713v5.713h5.713v-5.713zm17.123 0H80.31v5.713h5.713v-5.713zm28.532 0h-5.713v5.713h5.713v-5.713zm11.409 0h-5.712v5.713h5.712v-5.713zm5.713 0h-5.713v5.713h5.713v-5.713z" fill="#000"/><path d="M137.375 28.537h-5.713v5.713h5.713v-5.713zm11.426 0h-5.713v5.713h5.713v-5.713zM11.82 34.25H6.109v5.713h5.713V34.25zm34.246 0h-5.713v5.713h5.713V34.25zm11.409 0h-5.712v5.713h5.712V34.25zm28.549 0H80.31v5.713h5.713V34.25zm28.532 0h-5.713v5.713h5.713V34.25zm34.245 0h-5.713v5.713h5.713V34.25z" fill="#000"/><path d="M11.82 39.947H6.109v5.713h5.713v-5.713z" fill="#000"/><path d="M17.534 39.947H11.82v5.713h5.713v-5.713zm5.713 0h-5.713v5.713h5.713v-5.713z" fill="#000"/><path d="M28.943 39.947h-5.712v5.713h5.712v-5.713z" fill="#000"/><path d="M34.656 39.947h-5.713v5.713h5.713v-5.713zm5.714 0h-5.714v5.713h5.713v-5.713z" fill="#000"/><path d="M46.066 39.947h-5.713v5.713h5.713v-5.713zm11.409 0h-5.712v5.713h5.712v-5.713zm11.426 0h-5.713v5.713h5.713v-5.713zm11.409 0h-5.712v5.713h5.713v-5.713zm11.41 0h-5.712v5.713h5.712v-5.713zm11.426 0h-5.713v5.713h5.713v-5.713zm11.41 0h-5.713v5.713h5.713v-5.713z" fill="#000"/><path d="M120.253 39.947h-5.713v5.713h5.713v-5.713zm5.712 0h-5.712v5.713h5.712v-5.713zm5.713 0h-5.713v5.713h5.713v-5.713z" fill="#000"/><path d="M137.375 39.947h-5.713v5.713h5.713v-5.713zm5.713 0h-5.713v5.713h5.713v-5.713zm5.713 0h-5.713v5.713h5.713v-5.713zM57.475 45.66h-5.712v5.713h5.712V45.66zm11.426 0h-5.713v5.713h5.713V45.66z" fill="#000"/><path d="M74.598 45.66h-5.713v5.713h5.713V45.66zm28.548 0h-5.713v5.713h5.713V45.66zM11.82 51.373H6.109v5.712h5.713v-5.712z" fill="#000"/><path d="M17.534 51.373H11.82v5.712h5.713v-5.712zm5.713 0h-5.713v5.712h5.713v-5.712zm17.123 0h-5.714v5.712h5.713v-5.712z" fill="#000"/><path d="M46.066 51.373h-5.713v5.712h5.713v-5.712zm11.409 0h-5.712v5.712h5.712v-5.712z" fill="#000"/><path d="M63.188 51.373h-5.713v5.712h5.713v-5.712z" fill="#000"/><path d="M68.901 51.373h-5.713v5.712h5.713v-5.712z" fill="#000"/><path d="M74.598 51.373h-5.713v5.712h5.713v-5.712zm5.712 0h-5.712v5.712h5.713v-5.712zm17.123 0H91.72v5.712h5.713v-5.712zm11.41 0h-5.713v5.712h5.713v-5.712zm5.713 0h-5.713v5.712h5.713v-5.712z" fill="#000"/><path d="M120.253 51.373h-5.713v5.712h5.713v-5.712zm5.712 0h-5.712v5.712h5.712v-5.712zm17.123 0h-5.713v5.712h5.713v-5.712zm5.713 0h-5.713v5.712h5.713v-5.712zM17.534 57.07H11.82v5.712h5.713V57.07zm11.409 0h-5.712v5.712h5.712V57.07zm11.427 0h-5.714v5.712h5.713V57.07zm11.409 0h-5.713v5.712h5.713V57.07zm11.409 0h-5.713v5.712h5.713V57.07zm5.713 0h-5.713v5.712h5.713V57.07z" fill="#000"/><path d="M74.598 57.07h-5.713v5.712h5.713V57.07zm5.712 0h-5.712v5.712h5.713V57.07zm17.123 0H91.72v5.712h5.713V57.07zm5.713 0h-5.713v5.712h5.713V57.07zm11.41 0h-5.713v5.712h5.713V57.07z" fill="#000"/><path d="M120.253 57.07h-5.713v5.712h5.713V57.07zm11.425 0h-5.713v5.712h5.713V57.07zm11.41 0h-5.713v5.712h5.713V57.07zm5.713 0h-5.713v5.712h5.713V57.07zM17.534 62.782H11.82v5.713h5.713v-5.713zm11.409 0h-5.712v5.713h5.712v-5.713zm5.713 0h-5.713v5.713h5.713v-5.713zm5.714 0h-5.714v5.713h5.713v-5.713z" fill="#000"/><path d="M46.066 62.782h-5.713v5.713h5.713v-5.713zm5.713 0h-5.713v5.713h5.713v-5.713zm22.819 0h-5.713v5.713h5.713v-5.713zm11.426 0H80.31v5.713h5.713v-5.713zm11.409 0H91.72v5.713h5.713v-5.713zm5.713 0h-5.713v5.713h5.713v-5.713zm11.41 0h-5.713v5.713h5.713v-5.713z" fill="#000"/><path d="M120.253 62.782h-5.713v5.713h5.713v-5.713zm11.425 0h-5.713v5.713h5.713v-5.713z" fill="#000"/><path d="M137.375 62.782h-5.713v5.713h5.713v-5.713zm11.426 0h-5.713v5.713h5.713v-5.713zM11.82 68.479H6.109v5.713h5.713v-5.713z" fill="#000"/><path d="M17.534 68.479H11.82v5.713h5.713v-5.713zm5.713 0h-5.713v5.713h5.713v-5.713zm34.228 0h-5.712v5.713h5.712v-5.713z" fill="#000"/><path d="M63.188 68.479h-5.713v5.713h5.713v-5.713zm28.532 0h-5.712v5.713h5.712v-5.713zm5.713 0H91.72v5.713h5.713v-5.713zm5.713 0h-5.713v5.713h5.713v-5.713z" fill="#000"/><path d="M108.843 68.479h-5.713v5.713h5.713v-5.713zm11.41 0h-5.713v5.713h5.713v-5.713zm5.712 0h-5.712v5.713h5.712v-5.713zm5.713 0h-5.713v5.713h5.713v-5.713zm-97.022 5.713h-5.713v5.713h5.713v-5.713zm11.41 0h-5.713v5.713h5.713v-5.713zm17.122 0h-5.713v5.713h5.713v-5.713zm11.41 0h-5.713v5.713h5.713v-5.713zm5.712 0h-5.712v5.713h5.713v-5.713zm22.836 0h-5.713v5.713h5.713v-5.713zm11.41 0h-5.713v5.713h5.713v-5.713z" fill="#000"/><path d="M120.253 74.192h-5.713v5.713h5.713v-5.713zm28.548 0h-5.713v5.713h5.713v-5.713zM17.534 79.904H11.82v5.713h5.713v-5.713zm11.409 0h-5.712v5.713h5.712v-5.713zm11.427 0h-5.714v5.713h5.713v-5.713zm11.409 0h-5.713v5.713h5.713v-5.713zm22.819 0h-5.713v5.713h5.713v-5.713zm5.712 0h-5.712v5.713h5.713v-5.713zm17.123 0H91.72v5.713h5.713v-5.713z" fill="#000"/><path d="M114.556 79.904h-5.713v5.713h5.713v-5.713z" fill="#000"/><path d="M120.253 79.904h-5.713v5.713h5.713v-5.713zm22.835 0h-5.713v5.713h5.713v-5.713zm5.713 0h-5.713v5.713h5.713v-5.713zM11.82 85.601H6.109v5.713h5.713v-5.713z" fill="#000"/><path d="M17.534 85.601H11.82v5.713h5.713v-5.713zm5.713 0h-5.713v5.713h5.713v-5.713zm11.409 0h-5.713v5.713h5.713v-5.713zm5.714 0h-5.714v5.713h5.713v-5.713z" fill="#000"/><path d="M46.066 85.601h-5.713v5.713h5.713v-5.713zm5.713 0h-5.713v5.713h5.713v-5.713z" fill="#000"/><path d="M57.475 85.601h-5.712v5.713h5.712v-5.713z" fill="#000"/><path d="M63.188 85.601h-5.713v5.713h5.713v-5.713z" fill="#000"/><path d="M68.901 85.601h-5.713v5.713h5.713v-5.713z" fill="#000"/><path d="M74.598 85.601h-5.713v5.713h5.713v-5.713zm11.426 0H80.31v5.713h5.713v-5.713zm11.409 0H91.72v5.713h5.713v-5.713zm34.245 0h-5.713v5.713h5.713v-5.713z" fill="#000"/><path d="M137.375 85.601h-5.713v5.713h5.713v-5.713zm11.426 0h-5.713v5.713h5.713v-5.713zM28.943 91.314h-5.712v5.713h5.712v-5.713z" fill="#000"/><path d="M34.656 91.314h-5.713v5.713h5.713v-5.713zm22.819 0h-5.712v5.713h5.712v-5.713zm5.713 0h-5.713v5.713h5.713v-5.713zm17.122 0h-5.712v5.713h5.713v-5.713zm17.123 0H91.72v5.713h5.713v-5.713zm22.82 0h-5.713v5.713h5.713v-5.713zm5.712 0h-5.712v5.713h5.712v-5.713zM11.82 97.027H6.109v5.713h5.713v-5.713z" fill="#000"/><path d="M17.534 97.027H11.82v5.713h5.713v-5.713zm17.122 0h-5.713v5.713h5.713v-5.713zm11.41 0h-5.713v5.713h5.713v-5.713zm11.409 0h-5.712v5.713h5.712v-5.713z" fill="#000"/><path d="M63.188 97.027h-5.713v5.713h5.713v-5.713zm17.122 0h-5.712v5.713h5.713v-5.713zm22.836 0h-5.713v5.713h5.713v-5.713z" fill="#000"/><path d="M108.843 97.027h-5.713v5.713h5.713v-5.713zm5.713 0h-5.713v5.713h5.713v-5.713z" fill="#000"/><path d="M120.253 97.027h-5.713v5.713h5.713v-5.713zm5.712 0h-5.712v5.713h5.712v-5.713zm17.123 0h-5.713v5.713h5.713v-5.713zm-85.613 5.697h-5.712v5.713h5.712v-5.713zm17.123 0h-5.713v5.713h5.713v-5.713zm17.122 0h-5.712v5.713h5.712v-5.713zm11.426 0h-5.713v5.713h5.713v-5.713z" fill="#000"/><path d="M125.965 102.724h-5.712v5.713h5.712v-5.713zm11.41 0h-5.713v5.713h5.713v-5.713zm11.426 0h-5.713v5.713h5.713v-5.713zM11.82 108.437H6.109v5.713h5.713v-5.713z" fill="#000"/><path d="M17.534 108.437H11.82v5.713h5.713v-5.713zm5.713 0h-5.713v5.713h5.713v-5.713z" fill="#000"/><path d="M28.943 108.437h-5.712v5.713h5.712v-5.713z" fill="#000"/><path d="M34.656 108.437h-5.713v5.713h5.713v-5.713zm5.714 0h-5.714v5.713h5.713v-5.713z" fill="#000"/><path d="M46.066 108.437h-5.713v5.713h5.713v-5.713zm28.532 0h-5.713v5.713h5.713v-5.713zm11.426 0H80.31v5.713h5.713v-5.713zm17.122 0h-5.713v5.713h5.713v-5.713zm11.41 0h-5.713v5.713h5.713v-5.713zm11.409 0h-5.712v5.713h5.712v-5.713zm5.713 0h-5.713v5.713h5.713v-5.713zm17.123 0h-5.713v5.713h5.713v-5.713zM11.82 114.134H6.109v5.712h5.713v-5.712z" fill="#000"/><path d="M46.066 114.134h-5.713v5.712h5.713v-5.712zm11.409 0h-5.712v5.712h5.712v-5.712zm11.426 0h-5.713v5.712h5.713v-5.712zm28.532 0H91.72v5.712h5.713v-5.712zm5.713 0h-5.713v5.712h5.713v-5.712zm22.819 0h-5.712v5.712h5.712v-5.712zm17.123 0h-5.713v5.712h5.713v-5.712zM11.82 119.846H6.109v5.713h5.713v-5.713zm11.427 0h-5.713v5.713h5.713v-5.713z" fill="#000"/><path d="M28.943 119.846h-5.712v5.713h5.712v-5.713z" fill="#000"/><path d="M34.656 119.846h-5.713v5.713h5.713v-5.713zm11.41 0h-5.713v5.713h5.713v-5.713zm22.835 0h-5.713v5.713h5.713v-5.713zm11.409 0h-5.712v5.713h5.713v-5.713zm17.123 0H91.72v5.713h5.713v-5.713zm5.713 0h-5.713v5.713h5.713v-5.713z" fill="#000"/><path d="M108.843 119.846h-5.713v5.713h5.713v-5.713zm5.713 0h-5.713v5.713h5.713v-5.713z" fill="#000"/><path d="M120.253 119.846h-5.713v5.713h5.713v-5.713zm5.712 0h-5.712v5.713h5.712v-5.713zm5.713 0h-5.713v5.713h5.713v-5.713zM11.82 125.559H6.109v5.713h5.713v-5.713zm11.427 0h-5.713v5.713h5.713v-5.713z" fill="#000"/><path d="M28.943 125.559h-5.712v5.713h5.712v-5.713z" fill="#000"/><path d="M34.656 125.559h-5.713v5.713h5.713v-5.713zm11.41 0h-5.713v5.713h5.713v-5.713zm22.835 0h-5.713v5.713h5.713v-5.713z" fill="#000"/><path d="M74.598 125.559h-5.713v5.713h5.713v-5.713zm5.712 0h-5.712v5.713h5.713v-5.713zm22.836 0h-5.713v5.713h5.713v-5.713z" fill="#000"/><path d="M108.843 125.559h-5.713v5.713h5.713v-5.713zm17.122 0h-5.712v5.713h5.712v-5.713zm5.713 0h-5.713v5.713h5.713v-5.713z" fill="#000"/><path d="M137.375 125.559h-5.713v5.713h5.713v-5.713zm5.713 0h-5.713v5.713h5.713v-5.713zM11.82 131.256H6.109v5.713h5.713v-5.713zm11.427 0h-5.713v5.713h5.713v-5.713z" fill="#000"/><path d="M28.943 131.256h-5.712v5.713h5.712v-5.713z" fill="#000"/><path d="M34.656 131.256h-5.713v5.713h5.713v-5.713zm11.41 0h-5.713v5.713h5.713v-5.713zm11.409 0h-5.712v5.713h5.712v-5.713zm17.123 0h-5.713v5.713h5.713v-5.713zm5.712 0h-5.712v5.713h5.713v-5.713z" fill="#000"/><path d="M86.024 131.256H80.31v5.713h5.713v-5.713z" fill="#000"/><path d="M91.72 131.256h-5.712v5.713h5.712v-5.713zm17.123 0h-5.713v5.713h5.713v-5.713zm17.122 0h-5.712v5.713h5.712v-5.713zm17.123 0h-5.713v5.713h5.713v-5.713zm5.713 0h-5.713v5.713h5.713v-5.713zM11.82 136.969H6.109v5.713h5.713v-5.713zm34.246 0h-5.713v5.713h5.713v-5.713zm11.409 0h-5.712v5.713h5.712v-5.713zm11.426 0h-5.713v5.713h5.713v-5.713zm22.819 0h-5.712v5.713h5.712v-5.713zm11.426 0h-5.713v5.713h5.713v-5.713zm11.41 0h-5.713v5.713h5.713v-5.713z" fill="#000"/><path d="M120.253 136.969h-5.713v5.713h5.713v-5.713zm5.712 0h-5.712v5.713h5.712v-5.713zM11.82 142.682H6.109v5.712h5.713v-5.712z" fill="#000"/><path d="M17.534 142.682H11.82v5.712h5.713v-5.712zm5.713 0h-5.713v5.712h5.713v-5.712z" fill="#000"/><path d="M28.943 142.682h-5.712v5.712h5.712v-5.712z" fill="#000"/><path d="M34.656 142.682h-5.713v5.712h5.713v-5.712zm5.714 0h-5.714v5.712h5.713v-5.712z" fill="#000"/><path d="M46.066 142.682h-5.713v5.712h5.713v-5.712zm11.409 0h-5.712v5.712h5.712v-5.712zm45.671 0h-5.713v5.712h5.713v-5.712zm11.41 0h-5.713v5.712h5.713v-5.712zm17.122 0h-5.713v5.712h5.713v-5.712zm17.123 0h-5.713v5.712h5.713v-5.712z" fill="#000"/></svg>