<svg width="24" height="24" fill="none" xmlns="http://www.w3.org/2000/svg"><path d="M16.087 2.25H7.162c-1.055 0-1.912.85-1.912 1.898v16.454c0 1.048.857 1.898 1.912 1.898h8.925c1.056 0 1.913-.85 1.913-1.898V4.148a1.906 1.906 0 00-1.913-1.898zm-4.462 18.984a1.269 1.269 0 01-1.275-1.265c0-.7.57-1.266 1.275-1.266s1.275.566 1.275 1.266c0 .7-.57 1.265-1.275 1.265zm4.462-4.271a.478.478 0 01-.478.474H7.641a.478.478 0 01-.479-.474V4.623c0-.261.216-.475.479-.475h7.968c.263 0 .478.214.478.475v12.34z" fill="#000"/></svg>