<svg width="101" height="30" fill="none" xmlns="http://www.w3.org/2000/svg"><path d="M93.677 30H6.774C3.044 30 0 26.94 0 23.19V6.81C0 3.06 3.065 0 6.774 0h86.882c3.751 0 6.795 3.06 6.795 6.81v16.38c0 3.75-3.044 6.81-6.774 6.81z" fill="#0C0A05"/><path d="M31.961 17.802h2.037c.257 0 .343.064.364.323.15 1.789-.3 3.362-1.8 4.44-1.608 1.142-3.387 1.271-5.167.452-1.993-.905-3.108-2.5-3.108-4.698 0-2.155 1.05-3.771 2.958-4.72 1.951-.97 3.816-.711 5.552.604.3.215.3.366.022.603-.236.194-.429.539-.686.625-.257.065-.472-.302-.729-.452-1.243-.733-2.958-.625-4.137.28-1.222.948-1.737 2.607-1.286 4.138.428 1.444 1.693 2.5 3.172 2.607 1.05.087 2.037-.086 2.851-.84.472-.431.73-.97.858-1.595.064-.28 0-.345-.279-.345h-2.658c-.3 0-.407-.064-.407-.388 0-1.077 0-1.077 1.05-1.077h1.372l.021.043zm22.83-.345c-.086-.474.172-.474.515-.474.9 0 .9 0 .9.927v4.935c0 .517-.043 1.034-.193 1.552-.386 1.228-1.308 2.004-2.594 2.09-1.457.108-2.68-.539-3.237-1.681-.107-.194-.107-.323.129-.388.064 0 .107-.043.171-.064.258-.108.493-.28.75-.28.3 0 .3.387.494.56.536.538 1.179.646 1.865.474.664-.151.986-.625 1.136-1.272.064-.345.043-.668.064-1.056-1.265 1.035-2.85.927-3.987-.215-1.243-1.25-1.33-3.212-.236-4.59 1.093-1.359 2.658-1.574 4.223-.518zm.107 2.694c0-1.207-.707-2.047-1.758-2.047-1.071 0-1.843.84-1.864 2.025 0 1.143.814 2.048 1.864 2.026 1.008 0 1.758-.862 1.758-2.004z" fill="#FEFFFF"/><path d="M69.411 18.405v-4.461c0-.302.043-.41.386-.41 1.05.022 2.08 0 3.13 0 1.758 0 3.022 1.25 3.044 2.953.021 1.724-1.222 2.996-3.023 3.039H71.19c-.257 0-.321.086-.321.323v3.147c0 .258-.043.345-.322.345-1.136 0-1.136.021-1.136-1.1v-3.857.021zm1.458-1.853v1.271c0 .216.064.28.279.28h1.843c.836-.064 1.48-.776 1.458-1.573-.022-.819-.686-1.487-1.522-1.53h-1.758c-.214 0-.3.065-.3.302v1.293" fill="#fff"/><path d="M84.567 22.457c-1.008 1.185-2.101 1.422-3.344.776-.858-.453-1.308-1.143-1.287-2.155.022-.949.536-1.574 1.372-1.94 1.072-.453 2.144-.431 3.258-.043 0-.604-.321-.992-.814-1.25-.729-.367-1.586-.216-2.165.388-.15.172-.257.172-.429.086a5.603 5.603 0 00-.514-.237c-.558-.259-.558-.28-.15-.776.836-.97 2.358-1.293 3.708-.819 1.2.431 1.865 1.4 1.886 2.78v3.707c0 .28-.064.388-.342.345h-.193c-.6 0-.936-.302-1.008-.905l.022.043zm-1.994-.41c.836 0 1.693-.603 1.95-1.314.065-.194.044-.323-.15-.431-.6-.367-1.929-.345-2.486.064-.3.216-.472.518-.429.905.043.389.3.582.643.69.172.065.365.065.472.086zm4.074-5.344c.578 0 1.157-.151 1.586.043.428.194.471.84.664 1.293.45 1.013.88 2.026 1.35 3.125.28-.69.515-1.272.751-1.875.3-.755.6-1.53.9-2.285.086-.237.215-.345.493-.323.43.022.88 0 1.308 0 .064.194-.043.302-.086.431a1107.039 1107.039 0 00-3.837 8.88c-.128.301-.278.452-.621.409-.365-.043-.75 0-1.137 0-.107-.194.043-.302.108-.431.385-.84.771-1.703 1.2-2.522.129-.258.107-.452 0-.71-.836-1.876-1.65-3.75-2.487-5.647-.043-.108-.085-.194-.171-.388m-44.931 3.448c0 1.896-1.48 3.362-3.366 3.362-1.886 0-3.365-1.487-3.365-3.384 0-1.896 1.479-3.362 3.365-3.362 1.887 0 3.344 1.487 3.366 3.384zm-5.252 0c0 1.12.836 2.026 1.886 2.026 1.008 0 1.887-.905 1.887-1.983 0-1.207-.772-2.069-1.865-2.069s-1.908.84-1.908 2.026zm5.852 0c0-1.897 1.458-3.384 3.365-3.384 1.908 0 3.388 1.509 3.388 3.405 0 1.875-1.48 3.32-3.366 3.32-1.886 0-3.366-1.466-3.366-3.363l-.021.022zm5.273-.022c0-1.228-.75-2.047-1.865-2.069-1.072 0-1.907.884-1.907 2.048 0 1.077.878 2.026 1.907 2.004 1.03 0 1.865-.905 1.865-2.004m15.391 3.383c-1.886.065-3.43-1.508-3.365-3.448.064-2.026 1.565-3.427 3.494-3.276 1.115.086 2.422 1.25 2.615 2.328.043.258-.129.258-.257.302-1.243.517-2.487 1.056-3.752 1.551-.45.173-.342.345-.128.582.664.798 2.015.84 2.722 0 .258-.302.429-.28.665-.065.043.044.107.065.15.108.457.288.486.618.086.992a3.348 3.348 0 01-2.23.883v.043zm-1.908-3.556h.108c.814-.345 1.629-.668 2.443-1.013.15-.064.408-.043.386-.258 0-.173-.193-.28-.321-.388-.536-.345-1.094-.345-1.651-.022-.622.367-.965.927-.965 1.681z" fill="#FEFFFF"/><path d="M57.321 18.297v-4.526c0-.28.065-.387.365-.387 1.136 0 1.136-.022 1.136 1.12v8.276c0 .388-.065.56-.515.539-.986-.043-.986 0-.986-1.035v-3.987z" fill="#FBFBFC"/><path d="M78.714 18.47v4.504c0 .28-.064.366-.364.366-1.136 0-1.136 0-1.136-1.12v-8.276c0-.367.086-.453.45-.431 1.05 0 1.05 0 1.05 1.056v3.9z" fill="#FDFEFF"/><path d="M5.187 21.25c-.085-.366-.085-13.771 0-14.009l6.967 7.005-6.967 7.004zm7.674-6.271c.665.646 1.372 1.336 2.101 2.025-.086.065-.15.108-.236.151-2.7 1.552-5.402 3.082-8.103 4.634-.235.13-.471.215-.728.194L12.84 15l.021-.021zm2.079-3.535c-.707.69-1.414 1.38-2.1 2.026-2.294-2.285-4.609-4.634-6.945-6.961v-.043c.214.064.471.086.664.194 2.765 1.573 5.53 3.146 8.296 4.74.021 0 .043.044.086.066m.858 5.064l-2.251-2.263c.75-.754 1.5-1.53 2.272-2.327.857.495 1.758.97 2.615 1.53.665.43.622 1.142-.064 1.573-.857.517-1.715.992-2.572 1.487zm10.053-6.724V8.233h.472c.407-.539.622-1.444.622-2.694v-.517h2.744v3.232h.686v1.574h-.536v-1.1h-3.473v1.1h-.536l.021-.022zm3.28-1.573V5.496H27.46v.215c0 1.1-.171 1.94-.536 2.522h2.208zm3.88-3.341c.579 0 1.072.194 1.436.582.365.367.558.84.558 1.38 0 .538-.193.99-.558 1.379-.364.366-.857.56-1.436.56s-1.05-.194-1.436-.56a1.908 1.908 0 01-.557-1.38c0-.538.193-.99.557-1.379.364-.388.857-.582 1.436-.582zm1.03.906c-.28-.28-.623-.41-1.03-.41-.407 0-.75.13-1.029.41-.279.28-.407.625-.407 1.034 0 .41.128.754.407 1.034.279.28.6.41 1.03.41.428 0 .75-.13 1.028-.41a1.49 1.49 0 00.407-1.034c0-.41-.128-.754-.407-1.034zm2.271 2.435c-.364-.367-.557-.84-.557-1.401 0-.56.193-1.013.557-1.38.365-.366.858-.56 1.415-.56.429 0 .793.087 1.115.28v.518a2.058 2.058 0 00-1.03-.28c-.428 0-.771.129-1.071.41-.279.258-.429.603-.429 1.034 0 .43.129.754.429 1.034.279.259.643.41 1.072.41.428 0 .772-.108 1.114-.324v.517c-.342.216-.75.324-1.2.324a1.987 1.987 0 01-1.415-.56v-.022zm4.545.474V5.474H39.53V5h3.216v.474h-1.33v3.233h-.557zm2.358 1.443v-.516c.171.086.321.129.514.129.45 0 .75-.366 1.093-1.207l-1.65-3.577h.621l1.308 2.909 1.265-2.91h.6l-1.822 4.117c-.322.776-.772 1.142-1.329 1.142-.257 0-.472-.043-.579-.108l-.021.022zm4.609-1.443V5h3.323v3.707h-.558V5.474h-2.208v3.233h-.557zm4.609 0V5h.557v1.552h2.272V5h.558v3.707h-.558v-1.66h-2.272v1.66h-.557zm6.388-3.815c.578 0 1.072.194 1.436.582.364.367.557.84.557 1.38 0 .538-.193.99-.557 1.379-.364.366-.858.56-1.436.56-.579 0-1.05-.194-1.437-.56a1.908 1.908 0 01-.557-1.38c0-.538.193-.99.557-1.379.365-.388.858-.582 1.437-.582zm1.029.906c-.279-.28-.622-.41-1.03-.41-.407 0-.75.13-1.028.41-.279.28-.407.625-.407 1.034 0 .41.128.754.407 1.034.279.28.6.41 1.029.41.428 0 .75-.13 1.029-.41a1.49 1.49 0 00.407-1.034c0-.41-.129-.754-.407-1.034zm3.987 2.909V5h1.93c.707 0 1.114.388 1.114.948 0 .41-.15.668-.45.82.471.129.707.452.707.948 0 .603-.45.99-1.222.99h-2.079zm.557-2.134h1.243c.45 0 .73-.194.73-.539 0-.344-.28-.538-.73-.538h-1.243v1.099-.022zm0 1.66h1.415c.493 0 .793-.216.793-.582 0-.367-.3-.604-.793-.604h-1.415v1.186z" fill="#fff"/></svg>