<svg width="119" height="119" fill="none" xmlns="http://www.w3.org/2000/svg"><path d="M110 8H8v102h102V8z" fill="#fff"/><path d="M107.21 11.19H11.19v96.02h96.02V11.19z" fill="#fff"/><path d="M20.14 16.74h-3.4v3.4h3.4v-3.4zm3.4 0h-3.4v3.4h3.4v-3.4zm3.4 0h-3.4v3.4h3.4v-3.4z" fill="#000"/><path d="M30.33 16.74h-3.4v3.4h3.4v-3.4zm3.4 0h-3.4v3.4h3.4v-3.4zm3.4 0h-3.4v3.4h3.4v-3.4z" fill="#000"/><path d="M40.52 16.74h-3.4v3.4h3.4v-3.4zm10.19 0h-3.4v3.4h3.4v-3.4zm16.98 0h-3.4v3.4h3.4v-3.4zm6.8 0h-3.4v3.4h3.4v-3.4zm6.79 0h-3.4v3.4h3.4v-3.4z" fill="#000"/><path d="M84.67 16.74h-3.4v3.4h3.4v-3.4z" fill="#000"/><path d="M88.07 16.74h-3.4v3.4h3.4v-3.4zm3.4 0h-3.4v3.4h3.4v-3.4z" fill="#000"/><path d="M94.86 16.74h-3.4v3.4h3.4v-3.4zm3.4 0h-3.4v3.4h3.4v-3.4z" fill="#000"/><path d="M101.66 16.74h-3.4v3.4h3.4v-3.4zm-81.52 3.4h-3.4v3.4h3.4v-3.4zm20.38 0h-3.4v3.4h3.4v-3.4zm10.19 0h-3.4v3.4h3.4v-3.4zm3.4 0h-3.4v3.4h3.4v-3.4zm10.19 0h-3.4v3.4h3.4v-3.4z" fill="#000"/><path d="M67.69 20.14h-3.4v3.4h3.4v-3.4zm6.8 0h-3.4v3.4h3.4v-3.4zm6.79 0h-3.4v3.4h3.4v-3.4zm20.38 0h-3.4v3.4h3.4v-3.4zm-81.52 3.4h-3.4v3.4h3.4v-3.4zm6.8 0h-3.4v3.4h3.4v-3.4z" fill="#000"/><path d="M30.33 23.54h-3.4v3.4h3.4v-3.4zm3.4 0h-3.4v3.4h3.4v-3.4zm6.79 0h-3.4v3.4h3.4v-3.4zm10.19 0h-3.4v3.4h3.4v-3.4zm10.19 0h-3.4v3.4h3.4v-3.4zm6.79 0h-3.4v3.4h3.4v-3.4zm6.8 0h-3.4v3.4h3.4v-3.4zm6.79 0h-3.4v3.4h3.4v-3.4zm6.79 0h-3.4v3.4h3.4v-3.4zm3.4 0h-3.4v3.4h3.4v-3.4z" fill="#000"/><path d="M94.86 23.54h-3.4v3.4h3.4v-3.4zm6.8 0h-3.4v3.4h3.4v-3.4zm-81.52 3.39h-3.4v3.4h3.4v-3.4zm6.8 0h-3.4v3.4h3.4v-3.4z" fill="#000"/><path d="M30.33 26.93h-3.4v3.4h3.4v-3.4zm3.4 0h-3.4v3.4h3.4v-3.4zm6.79 0h-3.4v3.4h3.4v-3.4zm6.79 0h-3.4v3.4h3.4v-3.4zm3.4 0h-3.4v3.4h3.4v-3.4zm6.79 0h-3.4v3.4h3.4v-3.4zm3.4 0h-3.4v3.4h3.4v-3.4zm3.4 0h-3.4v3.4h3.4v-3.4zm6.79 0h-3.4v3.4h3.4v-3.4z" fill="#000"/><path d="M74.49 26.93h-3.4v3.4h3.4v-3.4zm6.79 0h-3.4v3.4h3.4v-3.4zm6.79 0h-3.4v3.4h3.4v-3.4zm3.4 0h-3.4v3.4h3.4v-3.4z" fill="#000"/><path d="M94.86 26.93h-3.4v3.4h3.4v-3.4zm6.8 0h-3.4v3.4h3.4v-3.4zm-81.52 3.4h-3.4v3.4h3.4v-3.4zm6.8 0h-3.4v3.4h3.4v-3.4z" fill="#000"/><path d="M30.33 30.33h-3.4v3.4h3.4v-3.4zm3.4 0h-3.4v3.4h3.4v-3.4zm6.79 0h-3.4v3.4h3.4v-3.4zm6.79 0h-3.4v3.4h3.4v-3.4zm3.4 0h-3.4v3.4h3.4v-3.4zm6.79 0h-3.4v3.4h3.4v-3.4zm10.19 0h-3.4v3.4h3.4v-3.4zm6.8 0h-3.4v3.4h3.4v-3.4zm6.79 0h-3.4v3.4h3.4v-3.4zm6.79 0h-3.4v3.4h3.4v-3.4zm3.4 0h-3.4v3.4h3.4v-3.4z" fill="#000"/><path d="M94.86 30.33h-3.4v3.4h3.4v-3.4zm6.8 0h-3.4v3.4h3.4v-3.4zm-81.52 3.4h-3.4v3.4h3.4v-3.4zm20.38 0h-3.4v3.4h3.4v-3.4zm13.59 0h-3.4v3.4h3.4v-3.4zm6.79 0h-3.4v3.4h3.4v-3.4zm3.4 0h-3.4v3.4h3.4v-3.4zm16.98 0h-3.4v3.4h3.4v-3.4zm20.38 0h-3.4v3.4h3.4v-3.4z" fill="#000"/><path d="M20.14 37.12h-3.4v3.4h3.4v-3.4zm3.4 0h-3.4v3.4h3.4v-3.4zm3.4 0h-3.4v3.4h3.4v-3.4z" fill="#000"/><path d="M30.33 37.12h-3.4v3.4h3.4v-3.4zm3.4 0h-3.4v3.4h3.4v-3.4zm3.4 0h-3.4v3.4h3.4v-3.4z" fill="#000"/><path d="M40.52 37.12h-3.4v3.4h3.4v-3.4zm6.79 0h-3.4v3.4h3.4v-3.4zm6.8 0h-3.4v3.4h3.4v-3.4zm6.79 0h-3.4v3.4h3.4v-3.4zm6.79 0h-3.4v3.4h3.4v-3.4zm6.8 0h-3.4v3.4h3.4v-3.4zm6.79 0h-3.4v3.4h3.4v-3.4z" fill="#000"/><path d="M84.67 37.12h-3.4v3.4h3.4v-3.4z" fill="#000"/><path d="M88.07 37.12h-3.4v3.4h3.4v-3.4zm3.4 0h-3.4v3.4h3.4v-3.4z" fill="#000"/><path d="M94.86 37.12h-3.4v3.4h3.4v-3.4zm3.4 0h-3.4v3.4h3.4v-3.4z" fill="#000"/><path d="M101.66 37.12h-3.4v3.4h3.4v-3.4zm-47.55 3.4h-3.4v3.4h3.4v-3.4z" fill="#000"/><path d="M57.5 40.52h-3.4v3.4h3.4v-3.4zm3.4 0h-3.4v3.4h3.4v-3.4zm13.59 0h-3.4v3.4h3.4v-3.4zm-54.35 3.39h-3.4v3.4h3.4v-3.4zm3.4 0h-3.4v3.4h3.4v-3.4zm13.59 0h-3.4v3.4h3.4v-3.4z" fill="#000"/><path d="M40.52 43.91h-3.4v3.4h3.4v-3.4zm3.4 0h-3.4v3.4h3.4v-3.4zm10.19 0h-3.4v3.4h3.4v-3.4zm10.19 0h-3.4v3.4h3.4v-3.4z" fill="#000"/><path d="M67.69 43.91h-3.4v3.4h3.4v-3.4zm3.4 0h-3.4v3.4h3.4v-3.4z" fill="#000"/><path d="M74.49 43.91h-3.4v3.4h3.4v-3.4zm13.58 0h-3.4v3.4h3.4v-3.4zm3.4 0h-3.4v3.4h3.4v-3.4zm-71.33 3.4h-3.4v3.4h3.4v-3.4zm13.59 0h-3.4v3.4h3.4v-3.4zm13.58 0h-3.4v3.4h3.4v-3.4zm10.19 0h-3.4v3.4h3.4v-3.4zm10.19 0h-3.4v3.4h3.4v-3.4zm3.4 0h-3.4v3.4h3.4v-3.4zm13.58 0h-3.4v3.4h3.4v-3.4z" fill="#000"/><path d="M88.07 47.31h-3.4v3.4h3.4v-3.4zm3.4 0h-3.4v3.4h3.4v-3.4z" fill="#000"/><path d="M94.86 47.31h-3.4v3.4h3.4v-3.4zm3.4 0h-3.4v3.4h3.4v-3.4zm-64.53 3.4h-3.4v3.4h3.4v-3.4zm3.4 0h-3.4v3.4h3.4v-3.4z" fill="#000"/><path d="M40.52 50.71h-3.4v3.4h3.4v-3.4zm20.38 0h-3.4v3.4h3.4v-3.4zm6.79 0h-3.4v3.4h3.4v-3.4zm3.4 0h-3.4v3.4h3.4v-3.4zm6.79 0h-3.4v3.4h3.4v-3.4zm3.4 0h-3.4v3.4h3.4v-3.4zm6.79 0h-3.4v3.4h3.4v-3.4zm3.4 0h-3.4v3.4h3.4v-3.4zm6.79 0h-3.4v3.4h3.4v-3.4z" fill="#000"/><path d="M101.66 50.71h-3.4v3.4h3.4v-3.4zM20.14 54.1h-3.4v3.4h3.4v-3.4zm6.8 0h-3.4v3.4h3.4v-3.4z" fill="#000"/><path d="M30.33 54.1h-3.4v3.4h3.4v-3.4zm6.8 0h-3.4v3.4h3.4v-3.4zm6.79 0h-3.4v3.4h3.4v-3.4zm23.77 0h-3.4v3.4h3.4v-3.4zm3.4 0h-3.4v3.4h3.4v-3.4z" fill="#000"/><path d="M74.49 54.1h-3.4v3.4h3.4v-3.4z" fill="#000"/><path d="M77.88 54.1h-3.4v3.4h3.4v-3.4zm3.4 0h-3.4v3.4h3.4v-3.4z" fill="#000"/><path d="M84.67 54.1h-3.4v3.4h3.4v-3.4z" fill="#000"/><path d="M88.07 54.1h-3.4v3.4h3.4v-3.4zm3.4 0h-3.4v3.4h3.4v-3.4zm10.19 0h-3.4v3.4h3.4v-3.4zm-81.52 3.4h-3.4v3.4h3.4v-3.4zm3.4 0h-3.4v3.4h3.4v-3.4zm3.4 0h-3.4v3.4h3.4v-3.4zm6.79 0h-3.4v3.4h3.4v-3.4zm6.79 0h-3.4v3.4h3.4v-3.4zm10.19 0h-3.4v3.4h3.4v-3.4zm3.4 0h-3.4v3.4h3.4v-3.4z" fill="#000"/><path d="M57.5 57.5h-3.4v3.4h3.4v-3.4zm3.4 0h-3.4v3.4h3.4v-3.4zm13.59 0h-3.4v3.4h3.4v-3.4zm6.79 0h-3.4v3.4h3.4v-3.4z" fill="#000"/><path d="M84.67 57.5h-3.4v3.4h3.4v-3.4zm16.99 0h-3.4v3.4h3.4v-3.4zm-81.52 3.4h-3.4v3.4h3.4v-3.4zm10.19 0h-3.4v3.4h3.4v-3.4zm3.4 0h-3.4v3.4h3.4v-3.4zm3.4 0h-3.4v3.4h3.4v-3.4zm20.37 0h-3.4v3.4h3.4v-3.4zm13.59 0h-3.4v3.4h3.4v-3.4zm13.58 0h-3.4v3.4h3.4v-3.4zm13.59 0h-3.4v3.4h3.4v-3.4z" fill="#000"/><path d="M20.14 64.29h-3.4v3.4h3.4v-3.4zm6.8 0h-3.4v3.4h3.4v-3.4zm6.79 0h-3.4v3.4h3.4v-3.4zm6.79 0h-3.4v3.4h3.4v-3.4zm6.79 0h-3.4v3.4h3.4v-3.4zm20.38 0h-3.4v3.4h3.4v-3.4zm3.4 0h-3.4v3.4h3.4v-3.4z" fill="#000"/><path d="M74.49 64.29h-3.4v3.4h3.4v-3.4z" fill="#000"/><path d="M77.88 64.29h-3.4v3.4h3.4v-3.4zm6.79 0h-3.4v3.4h3.4v-3.4z" fill="#000"/><path d="M88.07 64.29h-3.4v3.4h3.4v-3.4zm3.4 0h-3.4v3.4h3.4v-3.4zm6.79 0h-3.4v3.4h3.4v-3.4z" fill="#000"/><path d="M101.66 64.29h-3.4v3.4h3.4v-3.4zm-81.52 3.4h-3.4v3.4h3.4v-3.4zm13.59 0h-3.4v3.4h3.4v-3.4zm16.98 0h-3.4v3.4h3.4v-3.4zm3.4 0h-3.4v3.4h3.4v-3.4z" fill="#000"/><path d="M57.5 67.69h-3.4v3.4h3.4v-3.4zm10.19 0h-3.4v3.4h3.4v-3.4zm3.4 0h-3.4v3.4h3.4v-3.4z" fill="#000"/><path d="M74.49 67.69h-3.4v3.4h3.4v-3.4zm6.79 0h-3.4v3.4h3.4v-3.4z" fill="#000"/><path d="M84.67 67.69h-3.4v3.4h3.4v-3.4zm10.19 0h-3.4v3.4h3.4v-3.4zm6.8 0h-3.4v3.4h3.4v-3.4zm-81.52 3.4h-3.4v3.4h3.4v-3.4zm10.19 0h-3.4v3.4h3.4v-3.4zm6.8 0h-3.4v3.4h3.4v-3.4z" fill="#000"/><path d="M40.52 71.09h-3.4v3.4h3.4v-3.4zm10.19 0h-3.4v3.4h3.4v-3.4zm3.4 0h-3.4v3.4h3.4v-3.4z" fill="#000"/><path d="M57.5 71.09h-3.4v3.4h3.4v-3.4zm6.8 0h-3.4v3.4h3.4v-3.4z" fill="#000"/><path d="M67.69 71.09h-3.4v3.4h3.4v-3.4zm6.8 0h-3.4v3.4h3.4v-3.4z" fill="#000"/><path d="M77.88 71.09h-3.4v3.4h3.4v-3.4zm3.4 0h-3.4v3.4h3.4v-3.4z" fill="#000"/><path d="M84.67 71.09h-3.4v3.4h3.4v-3.4z" fill="#000"/><path d="M88.07 71.09h-3.4v3.4h3.4v-3.4zm6.79 0h-3.4v3.4h3.4v-3.4zm-47.55 3.39h-3.4v3.4h3.4v-3.4zm20.38 0h-3.4v3.4h3.4v-3.4zm6.8 0h-3.4v3.4h3.4v-3.4z" fill="#000"/><path d="M88.07 74.48h-3.4v3.4h3.4v-3.4zm6.79 0h-3.4v3.4h3.4v-3.4zm-74.72 3.4h-3.4v3.4h3.4v-3.4zm3.4 0h-3.4v3.4h3.4v-3.4zm3.4 0h-3.4v3.4h3.4v-3.4z" fill="#000"/><path d="M30.33 77.88h-3.4v3.4h3.4v-3.4zm3.4 0h-3.4v3.4h3.4v-3.4zm3.4 0h-3.4v3.4h3.4v-3.4z" fill="#000"/><path d="M40.52 77.88h-3.4v3.4h3.4v-3.4zm6.79 0h-3.4v3.4h3.4v-3.4zm3.4 0h-3.4v3.4h3.4v-3.4zm6.79 0h-3.4v3.4h3.4v-3.4zm6.8 0h-3.4v3.4h3.4v-3.4zm10.19 0h-3.4v3.4h3.4v-3.4zm6.79 0h-3.4v3.4h3.4v-3.4zm6.79 0h-3.4v3.4h3.4v-3.4zm3.4 0h-3.4v3.4h3.4v-3.4zm10.19 0h-3.4v3.4h3.4v-3.4zm-81.52 3.39h-3.4v3.4h3.4v-3.4z" fill="#000"/><path d="M40.52 81.27h-3.4v3.4h3.4v-3.4zm6.79 0h-3.4v3.4h3.4v-3.4zm6.8 0h-3.4v3.4h3.4v-3.4zm6.79 0h-3.4v3.4h3.4v-3.4zm10.19 0h-3.4v3.4h3.4v-3.4z" fill="#000"/><path d="M74.49 81.27h-3.4v3.4h3.4v-3.4zm13.58 0h-3.4v3.4h3.4v-3.4zm13.59 0h-3.4v3.4h3.4v-3.4zm-81.52 3.4h-3.4v3.4h3.4v-3.4zm6.8 0h-3.4v3.4h3.4v-3.4z" fill="#000"/><path d="M30.33 84.67h-3.4v3.4h3.4v-3.4zm3.4 0h-3.4v3.4h3.4v-3.4zm6.79 0h-3.4v3.4h3.4v-3.4zm10.19 0h-3.4v3.4h3.4v-3.4zm3.4 0h-3.4v3.4h3.4v-3.4z" fill="#000"/><path d="M57.5 84.67h-3.4v3.4h3.4v-3.4zm3.4 0h-3.4v3.4h3.4v-3.4zm3.4 0h-3.4v3.4h3.4v-3.4z" fill="#000"/><path d="M67.69 84.67h-3.4v3.4h3.4v-3.4zm3.4 0h-3.4v3.4h3.4v-3.4z" fill="#000"/><path d="M74.49 84.67h-3.4v3.4h3.4v-3.4z" fill="#000"/><path d="M77.88 84.67h-3.4v3.4h3.4v-3.4zm3.4 0h-3.4v3.4h3.4v-3.4z" fill="#000"/><path d="M84.67 84.67h-3.4v3.4h3.4v-3.4z" fill="#000"/><path d="M88.07 84.67h-3.4v3.4h3.4v-3.4zm3.4 0h-3.4v3.4h3.4v-3.4z" fill="#000"/><path d="M94.86 84.67h-3.4v3.4h3.4v-3.4zm6.8 0h-3.4v3.4h3.4v-3.4zm-81.52 3.4h-3.4v3.4h3.4v-3.4zm6.8 0h-3.4v3.4h3.4v-3.4z" fill="#000"/><path d="M30.33 88.07h-3.4v3.4h3.4v-3.4zm3.4 0h-3.4v3.4h3.4v-3.4zm6.79 0h-3.4v3.4h3.4v-3.4zm10.19 0h-3.4v3.4h3.4v-3.4zm6.79 0h-3.4v3.4h3.4v-3.4zm10.19 0h-3.4v3.4h3.4v-3.4zm10.19 0h-3.4v3.4h3.4v-3.4zm3.4 0h-3.4v3.4h3.4v-3.4zm10.19 0h-3.4v3.4h3.4v-3.4zm-71.33 3.39h-3.4v3.4h3.4v-3.4z" fill="#000"/><path d="M26.94 91.46h-3.4v3.4h3.4v-3.4z" fill="#000"/><path d="M30.33 91.46h-3.4v3.4h3.4v-3.4zm3.4 0h-3.4v3.4h3.4v-3.4zm6.79 0h-3.4v3.4h3.4v-3.4zm10.19 0h-3.4v3.4h3.4v-3.4zm3.4 0h-3.4v3.4h3.4v-3.4zm6.79 0h-3.4v3.4h3.4v-3.4zm13.59 0h-3.4v3.4h3.4v-3.4zm10.18 0h-3.4v3.4h3.4v-3.4zm10.19 0h-3.4v3.4h3.4v-3.4zm6.8 0h-3.4v3.4h3.4v-3.4zm-81.52 3.4h-3.4v3.4h3.4v-3.4zm20.38 0h-3.4v3.4h3.4v-3.4zm6.79 0h-3.4v3.4h3.4v-3.4zm6.8 0h-3.4v3.4h3.4v-3.4zm6.79 0h-3.4v3.4h3.4v-3.4zm6.79 0h-3.4v3.4h3.4v-3.4zm6.8 0h-3.4v3.4h3.4v-3.4zm10.18 0h-3.4v3.4h3.4v-3.4zm3.4 0h-3.4v3.4h3.4v-3.4zm13.59 0h-3.4v3.4h3.4v-3.4zm-81.52 3.4h-3.4v3.4h3.4v-3.4zm3.4 0h-3.4v3.4h3.4v-3.4zm3.4 0h-3.4v3.4h3.4v-3.4z" fill="#000"/><path d="M30.33 98.26h-3.4v3.4h3.4v-3.4zm3.4 0h-3.4v3.4h3.4v-3.4zm3.4 0h-3.4v3.4h3.4v-3.4z" fill="#000"/><path d="M40.52 98.26h-3.4v3.4h3.4v-3.4zm6.79 0h-3.4v3.4h3.4v-3.4zm6.8 0h-3.4v3.4h3.4v-3.4zm20.38 0h-3.4v3.4h3.4v-3.4zm6.79 0h-3.4v3.4h3.4v-3.4zm10.19 0h-3.4v3.4h3.4v-3.4zm10.19 0h-3.4v3.4h3.4v-3.4z" fill="#000"/></svg>