<svg width="72" height="76" fill="none" xmlns="http://www.w3.org/2000/svg"><g clip-path="url(#clip0_84_1188)"><path d="M37.37 12.336v25.55l6.956.828 16.557-16.22-4.222-3.99-8.344-5.08-10.947-1.088z" fill="#E20613"/><path d="M31.533 43.223c0 3.909 3.158 7.088 7.04 7.088 3.881 0 7.04-3.18 7.04-7.088a7.085 7.085 0 00-1.29-4.08L57.52 25.856a1.218 1.218 0 000-1.712 1.198 1.198 0 00-1.7 0L42.622 37.43a6.972 6.972 0 00-4.052-1.297c-3.882 0-7.04 3.18-7.04 7.088l.002.002zm7.04-4.667a4.59 4.59 0 013.041 1.15 1.214 1.214 0 00.452.455 4.666 4.666 0 011.142 3.062c0 2.574-2.08 4.668-4.636 4.668s-4.635-2.094-4.635-4.668c0-2.573 2.08-4.667 4.635-4.667zm1.202-14.792v-6.312c0-.668-.539-1.21-1.203-1.21-.663 0-1.202.542-1.202 1.21v6.312c0 .668.539 1.21 1.202 1.21.664 0 1.203-.542 1.203-1.21zm24.393 20.669c.664 0 1.202-.541 1.202-1.21 0-.668-.538-1.21-1.202-1.21H57.9c-.664 0-1.202.542-1.202 1.21 0 .669.538 1.21 1.202 1.21h6.27zm-12.78 11.692a1.218 1.218 0 000 1.712l4.433 4.464a1.195 1.195 0 001.7 0 1.218 1.218 0 000-1.713l-4.434-4.463a1.198 1.198 0 00-1.7 0h.001zM37.37 62.68v6.312c0 .669.539 1.21 1.202 1.21.664 0 1.203-.541 1.203-1.21V62.68c0-.668-.539-1.21-1.203-1.21-.663 0-1.202.542-1.202 1.21z" fill="#000"/><path d="M71.55 17.16l-7.397-7.474a1.199 1.199 0 00-1.7-.004 1.217 1.217 0 00-.004 1.713l2.846 2.877-5.136 5.153c-5.422-4.99-12.548-8.13-20.384-8.423V2.421h7.574c.664 0 1.202-.542 1.202-1.21A1.206 1.206 0 0047.349 0H29.794c-.664 0-1.202.542-1.202 1.21 0 .669.538 1.21 1.202 1.21h7.574v8.582c-7.737.289-15.056 3.357-20.721 8.718a1.215 1.215 0 00-.053 1.71 1.195 1.195 0 001.7.053c5.51-5.213 12.712-8.085 20.277-8.085 16.331 0 29.62 13.378 29.62 29.823 0 16.446-13.287 29.823-29.62 29.823-8.231 0-16.16-3.491-21.75-9.578a1.195 1.195 0 00-1.699-.066 1.215 1.215 0 00-.066 1.71c6.046 6.582 14.616 10.357 23.516 10.357 17.658 0 32.025-14.465 32.025-32.244 0-8.544-3.32-16.32-8.724-22.097l5.121-5.137 2.85 2.881a1.193 1.193 0 001.702.004c.47-.472.472-1.239.003-1.713v-.002z" fill="#000"/><path d="M2.004 31.966h19.24c.665 0 1.203-.542 1.203-1.21 0-.669-.538-1.21-1.202-1.21H2.005c-.665 0-1.203.541-1.203 1.21 0 .668.538 1.21 1.202 1.21zm3.113 11.257c0 .669.539 1.21 1.202 1.21h19.24c.665 0 1.203-.541 1.203-1.21 0-.668-.538-1.21-1.202-1.21H6.32c-.664 0-1.202.542-1.202 1.21h-.002zm16.589 11.633c0-.669-.538-1.21-1.202-1.21H1.264c-.664 0-1.202.541-1.202 1.21 0 .668.538 1.21 1.202 1.21h19.24c.664 0 1.202-.542 1.202-1.21z" fill="#E20613"/></g><defs><clipPath id="clip0_84_1188"><path fill="#fff" transform="translate(.062)" d="M0 0h71.838v75.467H0z"/></clipPath></defs></svg>